<svg width="40" height="40" viewBox="0 0 40 40" fill="none" xmlns="http://www.w3.org/2000/svg">
<path d="M20 8C21.5759 8 23.1363 8.31039 24.5922 8.91345C26.0481 9.5165 27.371 10.4004 28.4853 11.5147C29.5996 12.629 30.4835 13.9519 31.0866 15.4078C31.6896 16.8637 32 18.4241 32 20C32 23.1826 30.7357 26.2348 28.4853 28.4853C26.2348 30.7357 23.1826 32 20 32C18.4241 32 16.8637 31.6896 15.4078 31.0866C13.9519 30.4835 12.629 29.5996 11.5147 28.4853C9.26428 26.2348 8 23.1826 8 20C8 16.8174 9.26428 13.7652 11.5147 11.5147C13.7652 9.26428 16.8174 8 20 8V8ZM20 10.4C17.4539 10.4 15.0121 11.4114 13.2118 13.2118C11.4114 15.0121 10.4 17.4539 10.4 20C10.4 22.5461 11.4114 24.9879 13.2118 26.7882C15.0121 28.5886 17.4539 29.6 20 29.6C22.5461 29.6 24.9879 28.5886 26.7882 26.7882C28.5886 24.9879 29.6 22.5461 29.6 20C29.6 17.4539 28.5886 15.0121 26.7882 13.2118C24.9879 11.4114 22.5461 10.4 20 10.4V10.4ZM18.8 26V24.8H16.4V22.4H21.2V21.2H17.6C17.2817 21.2 16.9765 21.0736 16.7515 20.8485C16.5264 20.6235 16.4 20.3183 16.4 20V16.4C16.4 16.0817 16.5264 15.7765 16.7515 15.5515C16.9765 15.3264 17.2817 15.2 17.6 15.2H18.8V14H21.2V15.2H23.6V17.6H18.8V18.8H22.4C22.7183 18.8 23.0235 18.9264 23.2485 19.1515C23.4736 19.3765 23.6 19.6817 23.6 20V23.6C23.6 23.9183 23.4736 24.2235 23.2485 24.4485C23.0235 24.6736 22.7183 24.8 22.4 24.8H21.2V26H18.8Z" fill="#125C13"/>
</svg>
