<svg width="40" height="40" viewBox="0 0 40 40" fill="none" xmlns="http://www.w3.org/2000/svg">
<path d="M8 12H32V28H8V12ZM20 16C21.0609 16 22.0783 16.4214 22.8284 17.1716C23.5786 17.9217 24 18.9391 24 20C24 21.0609 23.5786 22.0783 22.8284 22.8284C22.0783 23.5786 21.0609 24 20 24C18.9391 24 17.9217 23.5786 17.1716 22.8284C16.4214 22.0783 16 21.0609 16 20C16 18.9391 16.4214 17.9217 17.1716 17.1716C17.9217 16.4214 18.9391 16 20 16V16ZM13.3333 14.6667C13.3333 15.3739 13.0524 16.0522 12.5523 16.5523C12.0522 17.0524 11.3739 17.3333 10.6667 17.3333V22.6667C11.3739 22.6667 12.0522 22.9476 12.5523 23.4477C13.0524 23.9478 13.3333 24.6261 13.3333 25.3333H26.6667C26.6667 24.6261 26.9476 23.9478 27.4477 23.4477C27.9478 22.9476 28.6261 22.6667 29.3333 22.6667V17.3333C28.6261 17.3333 27.9478 17.0524 27.4477 16.5523C26.9476 16.0522 26.6667 15.3739 26.6667 14.6667H13.3333Z" fill="#125C13"/>
</svg>
